<?xml version="1.0" encoding="UTF-8" standalone="no"?><svg xmlns="http://www.w3.org/2000/svg" xmlns:xlink="http://www.w3.org/1999/xlink" contentScriptType="application/ecmascript" contentStyleType="text/css" height="120px" preserveAspectRatio="none" style="width:632px;height:120px;" version="1.1" viewBox="0 0 632 120" width="632px" zoomAndPan="magnify"><defs><filter height="300%" id="fb2998hbngmd8" width="300%" x="-1" y="-1"><feGaussianBlur result="blurOut" stdDeviation="2.0"/><feColorMatrix in="blurOut" result="blurOut2" type="matrix" values="0 0 0 0 0 0 0 0 0 0 0 0 0 0 0 0 0 0 .4 0"/><feOffset dx="4.0" dy="4.0" in="blurOut2" result="blurOut3"/><feBlend in="SourceGraphic" in2="blurOut3" mode="normal"/></filter></defs><g><!--class RepresentationModel--><rect fill="#FEFECE" filter="url(#fb2998hbngmd8)" height="48" id="RepresentationModel" style="stroke: #A80036; stroke-width: 1.5;" width="166" x="455" y="61"/><ellipse cx="470" cy="77" fill="#ADD1B2" rx="11" ry="11" style="stroke: #A80036; stroke-width: 1.0;"/><path d="M472.9688,82.6406 Q472.3906,82.9375 471.75,83.0859 Q471.1094,83.2344 470.4063,83.2344 Q467.9063,83.2344 466.5859,81.5859 Q465.2656,79.9375 465.2656,76.8125 Q465.2656,73.6875 466.5859,72.0313 Q467.9063,70.375 470.4063,70.375 Q471.1094,70.375 471.7578,70.5313 Q472.4063,70.6875 472.9688,70.9844 L472.9688,73.7031 Q472.3438,73.125 471.75,72.8516 Q471.1563,72.5781 470.5313,72.5781 Q469.1875,72.5781 468.5,73.6484 Q467.8125,74.7188 467.8125,76.8125 Q467.8125,78.9063 468.5,79.9766 Q469.1875,81.0469 470.5313,81.0469 Q471.1563,81.0469 471.75,80.7734 Q472.3438,80.5 472.9688,79.9219 L472.9688,82.6406 Z "/><text fill="#000000" font-family="sans-serif" font-size="12" lengthAdjust="spacingAndGlyphs" textLength="134" x="484" y="81.1543">RepresentationModel</text><line style="stroke: #A80036; stroke-width: 1.5;" x1="456" x2="620" y1="93" y2="93"/><line style="stroke: #A80036; stroke-width: 1.5;" x1="456" x2="620" y1="101" y2="101"/><!--class EntityModel--><rect fill="#FEFECE" filter="url(#fb2998hbngmd8)" height="48" id="EntityModel" style="stroke: #A80036; stroke-width: 1.5;" width="104" x="6" y="61"/><ellipse cx="21" cy="77" fill="#ADD1B2" rx="11" ry="11" style="stroke: #A80036; stroke-width: 1.0;"/><path d="M23.9688,82.6406 Q23.3906,82.9375 22.75,83.0859 Q22.1094,83.2344 21.4063,83.2344 Q18.9063,83.2344 17.5859,81.5859 Q16.2656,79.9375 16.2656,76.8125 Q16.2656,73.6875 17.5859,72.0313 Q18.9063,70.375 21.4063,70.375 Q22.1094,70.375 22.7578,70.5313 Q23.4063,70.6875 23.9688,70.9844 L23.9688,73.7031 Q23.3438,73.125 22.75,72.8516 Q22.1563,72.5781 21.5313,72.5781 Q20.1875,72.5781 19.5,73.6484 Q18.8125,74.7188 18.8125,76.8125 Q18.8125,78.9063 19.5,79.9766 Q20.1875,81.0469 21.5313,81.0469 Q22.1563,81.0469 22.75,80.7734 Q23.3438,80.5 23.9688,79.9219 L23.9688,82.6406 Z "/><text fill="#000000" font-family="sans-serif" font-size="12" lengthAdjust="spacingAndGlyphs" textLength="72" x="35" y="81.1543">EntityModel</text><line style="stroke: #A80036; stroke-width: 1.5;" x1="7" x2="109" y1="93" y2="93"/><line style="stroke: #A80036; stroke-width: 1.5;" x1="7" x2="109" y1="101" y2="101"/><!--class CollectionModel--><rect fill="#FEFECE" filter="url(#fb2998hbngmd8)" height="48" id="CollectionModel" style="stroke: #A80036; stroke-width: 1.5;" width="130" x="290" y="61"/><ellipse cx="305" cy="77" fill="#ADD1B2" rx="11" ry="11" style="stroke: #A80036; stroke-width: 1.0;"/><path d="M307.9688,82.6406 Q307.3906,82.9375 306.75,83.0859 Q306.1094,83.2344 305.4063,83.2344 Q302.9063,83.2344 301.5859,81.5859 Q300.2656,79.9375 300.2656,76.8125 Q300.2656,73.6875 301.5859,72.0313 Q302.9063,70.375 305.4063,70.375 Q306.1094,70.375 306.7578,70.5313 Q307.4063,70.6875 307.9688,70.9844 L307.9688,73.7031 Q307.3438,73.125 306.75,72.8516 Q306.1563,72.5781 305.5313,72.5781 Q304.1875,72.5781 303.5,73.6484 Q302.8125,74.7188 302.8125,76.8125 Q302.8125,78.9063 303.5,79.9766 Q304.1875,81.0469 305.5313,81.0469 Q306.1563,81.0469 306.75,80.7734 Q307.3438,80.5 307.9688,79.9219 L307.9688,82.6406 Z "/><text fill="#000000" font-family="sans-serif" font-size="12" lengthAdjust="spacingAndGlyphs" textLength="98" x="319" y="81.1543">CollectionModel</text><line style="stroke: #A80036; stroke-width: 1.5;" x1="291" x2="419" y1="93" y2="93"/><line style="stroke: #A80036; stroke-width: 1.5;" x1="291" x2="419" y1="101" y2="101"/><!--class PagedModel--><rect fill="#FEFECE" filter="url(#fb2998hbngmd8)" height="48" id="PagedModel" style="stroke: #A80036; stroke-width: 1.5;" width="109" x="145.5" y="61"/><ellipse cx="160.5" cy="77" fill="#ADD1B2" rx="11" ry="11" style="stroke: #A80036; stroke-width: 1.0;"/><path d="M163.4688,82.6406 Q162.8906,82.9375 162.25,83.0859 Q161.6094,83.2344 160.9063,83.2344 Q158.4063,83.2344 157.0859,81.5859 Q155.7656,79.9375 155.7656,76.8125 Q155.7656,73.6875 157.0859,72.0313 Q158.4063,70.375 160.9063,70.375 Q161.6094,70.375 162.2578,70.5313 Q162.9063,70.6875 163.4688,70.9844 L163.4688,73.7031 Q162.8438,73.125 162.25,72.8516 Q161.6563,72.5781 161.0313,72.5781 Q159.6875,72.5781 159,73.6484 Q158.3125,74.7188 158.3125,76.8125 Q158.3125,78.9063 159,79.9766 Q159.6875,81.0469 161.0313,81.0469 Q161.6563,81.0469 162.25,80.7734 Q162.8438,80.5 163.4688,79.9219 L163.4688,82.6406 Z "/><text fill="#000000" font-family="sans-serif" font-size="12" lengthAdjust="spacingAndGlyphs" textLength="77" x="174.5" y="81.1543">PagedModel</text><line style="stroke: #A80036; stroke-width: 1.5;" x1="146.5" x2="253.5" y1="93" y2="93"/><line style="stroke: #A80036; stroke-width: 1.5;" x1="146.5" x2="253.5" y1="101" y2="101"/><!--link EntityModel to RepresentationModel--><path d="M87.6029,60.9891 C103.6945,49.4872 124.549,36.9445 145.5,31 C263.081,-2.361 301.102,4.877 420.5,31 C440.358,35.3448 460.869,43.3716 479.085,51.9323 " fill="none" id="EntityModel-RepresentationModel" style="stroke: #A80036; stroke-width: 1.0;"/><polygon fill="none" points="482.335,45.7307,497.115,60.9147,476.092,58.2617,482.335,45.7307" style="stroke: #A80036; stroke-width: 1.0;"/><!--link CollectionModel to RepresentationModel--><path d="M420.051,85 C424.82,85 429.59,85 434.359,85 " fill="none" id="CollectionModel-RepresentationModel" style="stroke: #A80036; stroke-width: 1.0;"/><polygon fill="none" points="434.606,77.9999,454.606,85,434.606,91.9999,434.606,77.9999" style="stroke: #A80036; stroke-width: 1.0;"/><!--link PagedModel to CollectionModel--><path d="M254.795,85 C259.694,85 264.593,85 269.492,85 " fill="none" id="PagedModel-CollectionModel" style="stroke: #A80036; stroke-width: 1.0;"/><polygon fill="none" points="269.632,77.9999,289.632,85,269.632,91.9999,269.632,77.9999" style="stroke: #A80036; stroke-width: 1.0;"/><!--
@startuml
class RepresentationModel
class EntityModel
class CollectionModel
class PagedModel

EntityModel -|> RepresentationModel
CollectionModel -|> RepresentationModel
PagedModel -|> CollectionModel
@enduml

PlantUML version 1.2018.10(Sat Aug 25 17:02:59 UTC 2018)
(APACHE source distribution)
Java Runtime: OpenJDK Runtime Environment
JVM: OpenJDK 64-Bit Server VM
Java Version: 1.8.0_181-8u181-b13-2~deb9u1-b13
Operating System: Linux
OS Version: 4.4.0-141-generic
Default Encoding: UTF-8
Language: en
Country: null
--></g></svg>